<?xml version="1.0" encoding="UTF-8"?>
<svg xmlns="http://www.w3.org/2000/svg" xmlns:xlink="http://www.w3.org/1999/xlink" width="100pt" height="100pt" viewBox="0 0 100 100" version="1.1">
<g id="surface69490">
<path style="fill:none;stroke-width:2;stroke-linecap:butt;stroke-linejoin:miter;stroke:rgb(20%,20%,20%);stroke-opacity:1;stroke-miterlimit:10;" d="M 83.285156 50 L 57.859375 85 "/>
<path style="fill:none;stroke-width:2;stroke-linecap:butt;stroke-linejoin:miter;stroke:rgb(20%,20%,20%);stroke-opacity:1;stroke-miterlimit:10;" d="M 83.285156 50 C 55.6875 40.566406 33.496094 47.777344 16.714844 71.632812 "/>
<path style="fill:none;stroke-width:2;stroke-linecap:butt;stroke-linejoin:miter;stroke:rgb(20%,20%,20%);stroke-opacity:1;stroke-miterlimit:10;" d="M 83.285156 50 C 66.503906 73.855469 44.3125 81.0625 16.714844 71.632812 "/>
<path style="fill:none;stroke-width:2;stroke-linecap:butt;stroke-linejoin:miter;stroke:rgb(20%,20%,20%);stroke-opacity:1;stroke-miterlimit:10;" d="M 83.285156 50 C 66.503906 26.144531 44.3125 18.9375 16.714844 28.367188 "/>
<path style="fill:none;stroke-width:2;stroke-linecap:butt;stroke-linejoin:miter;stroke:rgb(20%,20%,20%);stroke-opacity:1;stroke-miterlimit:10;" d="M 83.285156 50 C 55.6875 59.433594 33.496094 52.222656 16.714844 28.367188 "/>
<path style="fill:none;stroke-width:2;stroke-linecap:butt;stroke-linejoin:miter;stroke:rgb(20%,20%,20%);stroke-opacity:1;stroke-miterlimit:10;" d="M 83.285156 50 L 16.714844 28.367188 "/>
<path style="fill:none;stroke-width:2;stroke-linecap:butt;stroke-linejoin:miter;stroke:rgb(20%,20%,20%);stroke-opacity:1;stroke-miterlimit:10;" d="M 83.285156 50 L 57.859375 15 "/>
<path style="fill-rule:nonzero;fill:rgb(89.019608%,10.196078%,10.980392%);fill-opacity:1;stroke-width:1;stroke-linecap:butt;stroke-linejoin:miter;stroke:rgb(20%,20%,20%);stroke-opacity:1;stroke-miterlimit:10;" d="M 90.785156 50 C 90.785156 54.140625 87.429688 57.5 83.285156 57.5 C 79.144531 57.5 75.785156 54.140625 75.785156 50 C 75.785156 45.859375 79.144531 42.5 83.285156 42.5 C 87.429688 42.5 90.785156 45.859375 90.785156 50 "/>
<path style="fill-rule:nonzero;fill:rgb(89.019608%,10.196078%,10.980392%);fill-opacity:1;stroke-width:1;stroke-linecap:butt;stroke-linejoin:miter;stroke:rgb(20%,20%,20%);stroke-opacity:1;stroke-miterlimit:10;" d="M 65.359375 85 C 65.359375 89.140625 62 92.5 57.859375 92.5 C 53.714844 92.5 50.359375 89.140625 50.359375 85 C 50.359375 80.859375 53.714844 77.5 57.859375 77.5 C 62 77.5 65.359375 80.859375 65.359375 85 "/>
<path style="fill-rule:nonzero;fill:rgb(89.019608%,10.196078%,10.980392%);fill-opacity:1;stroke-width:1;stroke-linecap:butt;stroke-linejoin:miter;stroke:rgb(20%,20%,20%);stroke-opacity:1;stroke-miterlimit:10;" d="M 24.214844 71.632812 C 24.214844 75.773438 20.855469 79.132812 16.714844 79.132812 C 12.570312 79.132812 9.214844 75.773438 9.214844 71.632812 C 9.214844 67.488281 12.570312 64.132812 16.714844 64.132812 C 20.855469 64.132812 24.214844 67.488281 24.214844 71.632812 "/>
<path style="fill-rule:nonzero;fill:rgb(89.019608%,10.196078%,10.980392%);fill-opacity:1;stroke-width:1;stroke-linecap:butt;stroke-linejoin:miter;stroke:rgb(20%,20%,20%);stroke-opacity:1;stroke-miterlimit:10;" d="M 24.214844 28.367188 C 24.214844 32.511719 20.855469 35.867188 16.714844 35.867188 C 12.570312 35.867188 9.214844 32.511719 9.214844 28.367188 C 9.214844 24.226562 12.570312 20.867188 16.714844 20.867188 C 20.855469 20.867188 24.214844 24.226562 24.214844 28.367188 "/>
<path style="fill-rule:nonzero;fill:rgb(89.019608%,10.196078%,10.980392%);fill-opacity:1;stroke-width:1;stroke-linecap:butt;stroke-linejoin:miter;stroke:rgb(20%,20%,20%);stroke-opacity:1;stroke-miterlimit:10;" d="M 65.359375 15 C 65.359375 19.140625 62 22.5 57.859375 22.5 C 53.714844 22.5 50.359375 19.140625 50.359375 15 C 50.359375 10.859375 53.714844 7.5 57.859375 7.5 C 62 7.5 65.359375 10.859375 65.359375 15 "/>
</g>
</svg>
