<?xml version="1.0" encoding="UTF-8"?>
<svg xmlns="http://www.w3.org/2000/svg" xmlns:xlink="http://www.w3.org/1999/xlink" width="100pt" height="100pt" viewBox="0 0 100 100" version="1.1">
<g id="surface73439">
<path style="fill:none;stroke-width:2;stroke-linecap:butt;stroke-linejoin:miter;stroke:rgb(20%,20%,20%);stroke-opacity:1;stroke-miterlimit:10;" d="M 85 50 L 74.75 74.75 "/>
<path style="fill:none;stroke-width:2;stroke-linecap:butt;stroke-linejoin:miter;stroke:rgb(20%,20%,20%);stroke-opacity:1;stroke-miterlimit:10;" d="M 85 50 L 50 85 "/>
<path style="fill:none;stroke-width:2;stroke-linecap:butt;stroke-linejoin:miter;stroke:rgb(20%,20%,20%);stroke-opacity:1;stroke-miterlimit:10;" d="M 85 50 L 25.25 74.75 "/>
<path style="fill:none;stroke-width:2;stroke-linecap:butt;stroke-linejoin:miter;stroke:rgb(20%,20%,20%);stroke-opacity:1;stroke-miterlimit:10;" d="M 85 50 L 15 50 "/>
<path style="fill:none;stroke-width:2;stroke-linecap:butt;stroke-linejoin:miter;stroke:rgb(20%,20%,20%);stroke-opacity:1;stroke-miterlimit:10;" d="M 74.75 74.75 L 25.25 25.25 "/>
<path style="fill:none;stroke-width:2;stroke-linecap:butt;stroke-linejoin:miter;stroke:rgb(20%,20%,20%);stroke-opacity:1;stroke-miterlimit:10;" d="M 74.75 74.75 L 50 15 "/>
<path style="fill:none;stroke-width:2;stroke-linecap:butt;stroke-linejoin:miter;stroke:rgb(20%,20%,20%);stroke-opacity:1;stroke-miterlimit:10;" d="M 74.75 74.75 L 74.75 25.25 "/>
<path style="fill-rule:nonzero;fill:rgb(89.019608%,10.196078%,10.980392%);fill-opacity:1;stroke-width:1;stroke-linecap:butt;stroke-linejoin:miter;stroke:rgb(20%,20%,20%);stroke-opacity:1;stroke-miterlimit:10;" d="M 92.5 50 C 92.5 54.140625 89.140625 57.5 85 57.5 C 80.859375 57.5 77.5 54.140625 77.5 50 C 77.5 45.859375 80.859375 42.5 85 42.5 C 89.140625 42.5 92.5 45.859375 92.5 50 "/>
<path style="fill-rule:nonzero;fill:rgb(89.019608%,10.196078%,10.980392%);fill-opacity:1;stroke-width:1;stroke-linecap:butt;stroke-linejoin:miter;stroke:rgb(20%,20%,20%);stroke-opacity:1;stroke-miterlimit:10;" d="M 82.25 74.75 C 82.25 78.890625 78.890625 82.25 74.75 82.25 C 70.605469 82.25 67.25 78.890625 67.25 74.75 C 67.25 70.605469 70.605469 67.25 74.75 67.25 C 78.890625 67.25 82.25 70.605469 82.25 74.75 "/>
<path style="fill-rule:nonzero;fill:rgb(89.019608%,10.196078%,10.980392%);fill-opacity:1;stroke-width:1;stroke-linecap:butt;stroke-linejoin:miter;stroke:rgb(20%,20%,20%);stroke-opacity:1;stroke-miterlimit:10;" d="M 57.5 85 C 57.5 89.140625 54.140625 92.5 50 92.5 C 45.859375 92.5 42.5 89.140625 42.5 85 C 42.5 80.859375 45.859375 77.5 50 77.5 C 54.140625 77.5 57.5 80.859375 57.5 85 "/>
<path style="fill-rule:nonzero;fill:rgb(89.019608%,10.196078%,10.980392%);fill-opacity:1;stroke-width:1;stroke-linecap:butt;stroke-linejoin:miter;stroke:rgb(20%,20%,20%);stroke-opacity:1;stroke-miterlimit:10;" d="M 32.75 74.75 C 32.75 78.890625 29.394531 82.25 25.25 82.25 C 21.109375 82.25 17.75 78.890625 17.75 74.75 C 17.75 70.605469 21.109375 67.25 25.25 67.25 C 29.394531 67.25 32.75 70.605469 32.75 74.75 "/>
<path style="fill-rule:nonzero;fill:rgb(89.019608%,10.196078%,10.980392%);fill-opacity:1;stroke-width:1;stroke-linecap:butt;stroke-linejoin:miter;stroke:rgb(20%,20%,20%);stroke-opacity:1;stroke-miterlimit:10;" d="M 22.5 50 C 22.5 54.140625 19.140625 57.5 15 57.5 C 10.859375 57.5 7.5 54.140625 7.5 50 C 7.5 45.859375 10.859375 42.5 15 42.5 C 19.140625 42.5 22.5 45.859375 22.5 50 "/>
<path style="fill-rule:nonzero;fill:rgb(89.019608%,10.196078%,10.980392%);fill-opacity:1;stroke-width:1;stroke-linecap:butt;stroke-linejoin:miter;stroke:rgb(20%,20%,20%);stroke-opacity:1;stroke-miterlimit:10;" d="M 32.75 25.25 C 32.75 29.394531 29.394531 32.75 25.25 32.75 C 21.109375 32.75 17.75 29.394531 17.75 25.25 C 17.75 21.109375 21.109375 17.75 25.25 17.75 C 29.394531 17.75 32.75 21.109375 32.75 25.25 "/>
<path style="fill-rule:nonzero;fill:rgb(89.019608%,10.196078%,10.980392%);fill-opacity:1;stroke-width:1;stroke-linecap:butt;stroke-linejoin:miter;stroke:rgb(20%,20%,20%);stroke-opacity:1;stroke-miterlimit:10;" d="M 57.5 15 C 57.5 19.140625 54.140625 22.5 50 22.5 C 45.859375 22.5 42.5 19.140625 42.5 15 C 42.5 10.859375 45.859375 7.5 50 7.5 C 54.140625 7.5 57.5 10.859375 57.5 15 "/>
<path style="fill-rule:nonzero;fill:rgb(89.019608%,10.196078%,10.980392%);fill-opacity:1;stroke-width:1;stroke-linecap:butt;stroke-linejoin:miter;stroke:rgb(20%,20%,20%);stroke-opacity:1;stroke-miterlimit:10;" d="M 82.25 25.25 C 82.25 29.394531 78.890625 32.75 74.75 32.75 C 70.605469 32.75 67.25 29.394531 67.25 25.25 C 67.25 21.109375 70.605469 17.75 74.75 17.75 C 78.890625 17.75 82.25 21.109375 82.25 25.25 "/>
</g>
</svg>
