<?xml version="1.0" encoding="UTF-8"?>
<svg xmlns="http://www.w3.org/2000/svg" xmlns:xlink="http://www.w3.org/1999/xlink" width="100pt" height="100pt" viewBox="0 0 100 100" version="1.1">
<g id="surface68280">
<path style="fill:none;stroke-width:2;stroke-linecap:butt;stroke-linejoin:miter;stroke:rgb(20%,20%,20%);stroke-opacity:1;stroke-miterlimit:10;" d="M 85 50 C 61.667969 32.5 38.332031 32.5 15 50 "/>
<path style="fill:none;stroke-width:2;stroke-linecap:butt;stroke-linejoin:miter;stroke:rgb(20%,20%,20%);stroke-opacity:1;stroke-miterlimit:10;" d="M 85 50 C 61.667969 67.5 38.332031 67.5 15 50 "/>
<path style="fill:none;stroke-width:2;stroke-linecap:butt;stroke-linejoin:miter;stroke:rgb(20%,20%,20%);stroke-opacity:1;stroke-miterlimit:10;" d="M 85 50 L 15 50 "/>
<path style="fill-rule:nonzero;fill:rgb(89.019608%,10.196078%,10.980392%);fill-opacity:1;stroke-width:1;stroke-linecap:butt;stroke-linejoin:miter;stroke:rgb(20%,20%,20%);stroke-opacity:1;stroke-miterlimit:10;" d="M 92.5 50 C 92.5 54.140625 89.140625 57.5 85 57.5 C 80.859375 57.5 77.5 54.140625 77.5 50 C 77.5 45.859375 80.859375 42.5 85 42.5 C 89.140625 42.5 92.5 45.859375 92.5 50 "/>
<path style="fill-rule:nonzero;fill:rgb(89.019608%,10.196078%,10.980392%);fill-opacity:1;stroke-width:1;stroke-linecap:butt;stroke-linejoin:miter;stroke:rgb(20%,20%,20%);stroke-opacity:1;stroke-miterlimit:10;" d="M 22.5 50 C 22.5 54.140625 19.140625 57.5 15 57.5 C 10.859375 57.5 7.5 54.140625 7.5 50 C 7.5 45.859375 10.859375 42.5 15 42.5 C 19.140625 42.5 22.5 45.859375 22.5 50 "/>
</g>
</svg>
