<?xml version="1.0" encoding="UTF-8"?>
<svg xmlns="http://www.w3.org/2000/svg" xmlns:xlink="http://www.w3.org/1999/xlink" width="100pt" height="100pt" viewBox="0 0 100 100" version="1.1">
<g id="surface72603">
<path style="fill:none;stroke-width:2;stroke-linecap:butt;stroke-linejoin:miter;stroke:rgb(20%,20%,20%);stroke-opacity:1;stroke-miterlimit:10;" d="M 84.121094 50 L 70.605469 78.066406 "/>
<path style="fill:none;stroke-width:2;stroke-linecap:butt;stroke-linejoin:miter;stroke:rgb(20%,20%,20%);stroke-opacity:1;stroke-miterlimit:10;" d="M 84.121094 50 L 40.234375 85 "/>
<path style="fill:none;stroke-width:2;stroke-linecap:butt;stroke-linejoin:miter;stroke:rgb(20%,20%,20%);stroke-opacity:1;stroke-miterlimit:10;" d="M 84.121094 50 L 15.878906 65.578125 "/>
<path style="fill:none;stroke-width:2;stroke-linecap:butt;stroke-linejoin:miter;stroke:rgb(20%,20%,20%);stroke-opacity:1;stroke-miterlimit:10;" d="M 84.121094 50 L 15.878906 34.421875 "/>
<path style="fill:none;stroke-width:2;stroke-linecap:butt;stroke-linejoin:miter;stroke:rgb(20%,20%,20%);stroke-opacity:1;stroke-miterlimit:10;" d="M 70.605469 78.066406 L 40.234375 15 "/>
<path style="fill:none;stroke-width:2;stroke-linecap:butt;stroke-linejoin:miter;stroke:rgb(20%,20%,20%);stroke-opacity:1;stroke-miterlimit:10;" d="M 40.234375 85 L 70.605469 21.933594 "/>
<path style="fill-rule:nonzero;fill:rgb(89.019608%,10.196078%,10.980392%);fill-opacity:1;stroke-width:1;stroke-linecap:butt;stroke-linejoin:miter;stroke:rgb(20%,20%,20%);stroke-opacity:1;stroke-miterlimit:10;" d="M 91.621094 50 C 91.621094 54.140625 88.265625 57.5 84.121094 57.5 C 79.980469 57.5 76.621094 54.140625 76.621094 50 C 76.621094 45.859375 79.980469 42.5 84.121094 42.5 C 88.265625 42.5 91.621094 45.859375 91.621094 50 "/>
<path style="fill-rule:nonzero;fill:rgb(89.019608%,10.196078%,10.980392%);fill-opacity:1;stroke-width:1;stroke-linecap:butt;stroke-linejoin:miter;stroke:rgb(20%,20%,20%);stroke-opacity:1;stroke-miterlimit:10;" d="M 78.105469 78.066406 C 78.105469 82.210938 74.746094 85.566406 70.605469 85.566406 C 66.464844 85.566406 63.105469 82.210938 63.105469 78.066406 C 63.105469 73.925781 66.464844 70.566406 70.605469 70.566406 C 74.746094 70.566406 78.105469 73.925781 78.105469 78.066406 "/>
<path style="fill-rule:nonzero;fill:rgb(89.019608%,10.196078%,10.980392%);fill-opacity:1;stroke-width:1;stroke-linecap:butt;stroke-linejoin:miter;stroke:rgb(20%,20%,20%);stroke-opacity:1;stroke-miterlimit:10;" d="M 47.734375 85 C 47.734375 89.140625 44.375 92.5 40.234375 92.5 C 36.089844 92.5 32.734375 89.140625 32.734375 85 C 32.734375 80.859375 36.089844 77.5 40.234375 77.5 C 44.375 77.5 47.734375 80.859375 47.734375 85 "/>
<path style="fill-rule:nonzero;fill:rgb(89.019608%,10.196078%,10.980392%);fill-opacity:1;stroke-width:1;stroke-linecap:butt;stroke-linejoin:miter;stroke:rgb(20%,20%,20%);stroke-opacity:1;stroke-miterlimit:10;" d="M 23.378906 65.578125 C 23.378906 69.71875 20.019531 73.078125 15.878906 73.078125 C 11.734375 73.078125 8.378906 69.71875 8.378906 65.578125 C 8.378906 61.433594 11.734375 58.078125 15.878906 58.078125 C 20.019531 58.078125 23.378906 61.433594 23.378906 65.578125 "/>
<path style="fill-rule:nonzero;fill:rgb(89.019608%,10.196078%,10.980392%);fill-opacity:1;stroke-width:1;stroke-linecap:butt;stroke-linejoin:miter;stroke:rgb(20%,20%,20%);stroke-opacity:1;stroke-miterlimit:10;" d="M 23.378906 34.421875 C 23.378906 38.566406 20.019531 41.921875 15.878906 41.921875 C 11.734375 41.921875 8.378906 38.566406 8.378906 34.421875 C 8.378906 30.28125 11.734375 26.921875 15.878906 26.921875 C 20.019531 26.921875 23.378906 30.28125 23.378906 34.421875 "/>
<path style="fill-rule:nonzero;fill:rgb(89.019608%,10.196078%,10.980392%);fill-opacity:1;stroke-width:1;stroke-linecap:butt;stroke-linejoin:miter;stroke:rgb(20%,20%,20%);stroke-opacity:1;stroke-miterlimit:10;" d="M 47.734375 15 C 47.734375 19.140625 44.375 22.5 40.234375 22.5 C 36.089844 22.5 32.734375 19.140625 32.734375 15 C 32.734375 10.859375 36.089844 7.5 40.234375 7.5 C 44.375 7.5 47.734375 10.859375 47.734375 15 "/>
<path style="fill-rule:nonzero;fill:rgb(89.019608%,10.196078%,10.980392%);fill-opacity:1;stroke-width:1;stroke-linecap:butt;stroke-linejoin:miter;stroke:rgb(20%,20%,20%);stroke-opacity:1;stroke-miterlimit:10;" d="M 78.105469 21.933594 C 78.105469 26.074219 74.746094 29.433594 70.605469 29.433594 C 66.464844 29.433594 63.105469 26.074219 63.105469 21.933594 C 63.105469 17.789062 66.464844 14.433594 70.605469 14.433594 C 74.746094 14.433594 78.105469 17.789062 78.105469 21.933594 "/>
</g>
</svg>
