<?xml version="1.0" encoding="UTF-8"?>
<svg xmlns="http://www.w3.org/2000/svg" xmlns:xlink="http://www.w3.org/1999/xlink" width="100pt" height="100pt" viewBox="0 0 100 100" version="1.1">
<g id="surface71459">
<path style="fill:none;stroke-width:2;stroke-linecap:butt;stroke-linejoin:miter;stroke:rgb(20%,20%,20%);stroke-opacity:1;stroke-miterlimit:10;" d="M 85 50 L 67.5 80.3125 "/>
<path style="fill:none;stroke-width:2;stroke-linecap:butt;stroke-linejoin:miter;stroke:rgb(20%,20%,20%);stroke-opacity:1;stroke-miterlimit:10;" d="M 85 50 C 59.921875 46.980469 42.421875 57.082031 32.5 80.3125 "/>
<path style="fill:none;stroke-width:2;stroke-linecap:butt;stroke-linejoin:miter;stroke:rgb(20%,20%,20%);stroke-opacity:1;stroke-miterlimit:10;" d="M 85 50 C 75.078125 73.230469 57.578125 83.332031 32.5 80.3125 "/>
<path style="fill:none;stroke-width:2;stroke-linecap:butt;stroke-linejoin:miter;stroke:rgb(20%,20%,20%);stroke-opacity:1;stroke-miterlimit:10;" d="M 85 50 L 15 50 "/>
<path style="fill:none;stroke-width:2;stroke-linecap:butt;stroke-linejoin:miter;stroke:rgb(20%,20%,20%);stroke-opacity:1;stroke-miterlimit:10;" d="M 67.5 80.3125 C 70.988281 51.355469 59.320312 31.144531 32.5 19.6875 "/>
<path style="fill:none;stroke-width:2;stroke-linecap:butt;stroke-linejoin:miter;stroke:rgb(20%,20%,20%);stroke-opacity:1;stroke-miterlimit:10;" d="M 67.5 80.3125 C 40.679688 68.855469 29.011719 48.644531 32.5 19.6875 "/>
<path style="fill:none;stroke-width:2;stroke-linecap:butt;stroke-linejoin:miter;stroke:rgb(20%,20%,20%);stroke-opacity:1;stroke-miterlimit:10;" d="M 32.5 19.6875 L 67.5 19.6875 "/>
<path style="fill-rule:nonzero;fill:rgb(89.019608%,10.196078%,10.980392%);fill-opacity:1;stroke-width:1;stroke-linecap:butt;stroke-linejoin:miter;stroke:rgb(20%,20%,20%);stroke-opacity:1;stroke-miterlimit:10;" d="M 92.5 50 C 92.5 54.140625 89.140625 57.5 85 57.5 C 80.859375 57.5 77.5 54.140625 77.5 50 C 77.5 45.859375 80.859375 42.5 85 42.5 C 89.140625 42.5 92.5 45.859375 92.5 50 "/>
<path style="fill-rule:nonzero;fill:rgb(89.019608%,10.196078%,10.980392%);fill-opacity:1;stroke-width:1;stroke-linecap:butt;stroke-linejoin:miter;stroke:rgb(20%,20%,20%);stroke-opacity:1;stroke-miterlimit:10;" d="M 75 80.3125 C 75 84.453125 71.640625 87.8125 67.5 87.8125 C 63.359375 87.8125 60 84.453125 60 80.3125 C 60 76.167969 63.359375 72.8125 67.5 72.8125 C 71.640625 72.8125 75 76.167969 75 80.3125 "/>
<path style="fill-rule:nonzero;fill:rgb(89.019608%,10.196078%,10.980392%);fill-opacity:1;stroke-width:1;stroke-linecap:butt;stroke-linejoin:miter;stroke:rgb(20%,20%,20%);stroke-opacity:1;stroke-miterlimit:10;" d="M 40 80.3125 C 40 84.453125 36.640625 87.8125 32.5 87.8125 C 28.359375 87.8125 25 84.453125 25 80.3125 C 25 76.167969 28.359375 72.8125 32.5 72.8125 C 36.640625 72.8125 40 76.167969 40 80.3125 "/>
<path style="fill-rule:nonzero;fill:rgb(89.019608%,10.196078%,10.980392%);fill-opacity:1;stroke-width:1;stroke-linecap:butt;stroke-linejoin:miter;stroke:rgb(20%,20%,20%);stroke-opacity:1;stroke-miterlimit:10;" d="M 22.5 50 C 22.5 54.140625 19.140625 57.5 15 57.5 C 10.859375 57.5 7.5 54.140625 7.5 50 C 7.5 45.859375 10.859375 42.5 15 42.5 C 19.140625 42.5 22.5 45.859375 22.5 50 "/>
<path style="fill-rule:nonzero;fill:rgb(89.019608%,10.196078%,10.980392%);fill-opacity:1;stroke-width:1;stroke-linecap:butt;stroke-linejoin:miter;stroke:rgb(20%,20%,20%);stroke-opacity:1;stroke-miterlimit:10;" d="M 40 19.6875 C 40 23.832031 36.640625 27.1875 32.5 27.1875 C 28.359375 27.1875 25 23.832031 25 19.6875 C 25 15.546875 28.359375 12.1875 32.5 12.1875 C 36.640625 12.1875 40 15.546875 40 19.6875 "/>
<path style="fill-rule:nonzero;fill:rgb(89.019608%,10.196078%,10.980392%);fill-opacity:1;stroke-width:1;stroke-linecap:butt;stroke-linejoin:miter;stroke:rgb(20%,20%,20%);stroke-opacity:1;stroke-miterlimit:10;" d="M 75 19.6875 C 75 23.832031 71.640625 27.1875 67.5 27.1875 C 63.359375 27.1875 60 23.832031 60 19.6875 C 60 15.546875 63.359375 12.1875 67.5 12.1875 C 71.640625 12.1875 75 15.546875 75 19.6875 "/>
</g>
</svg>
